<svg height="76" width="45" xmlns="http://www.w3.org/2000/svg"><clipPath id="a"><path d="M0 0h45v76H0z"/></clipPath><g clip-path="url(#a)"><path d="M42.266 76H2.734A2.7 2.7 0 0 1 0 73.328V2.672A2.7 2.7 0 0 1 2.734 0h39.532A2.7 2.7 0 0 1 45 2.672v70.656A2.7 2.7 0 0 1 42.266 76" fill="#695e66"/><path d="M42.265 0h-3.094v67.632a2.7 2.7 0 0 1-2.734 2.668H0v3.023A2.7 2.7 0 0 0 2.735 76h39.53A2.7 2.7 0 0 0 45 73.328V2.673A2.7 2.7 0 0 0 42.265 0" fill="#453e43"/><path d="M38.842 62.513H5.927a1.2 1.2 0 0 1-1.216-1.187V9.249a1.2 1.2 0 0 1 1.216-1.188h32.915a1.2 1.2 0 0 1 1.215 1.188v52.077a1.2 1.2 0 0 1-1.215 1.187" fill="#62d8f9"/><path d="M38.842 8.062h-2.088V58.1a1.2 1.2 0 0 1-1.216 1.188H4.711v2.04a1.2 1.2 0 0 0 1.216 1.188h32.915a1.2 1.2 0 0 0 1.215-1.188V9.249a1.2 1.2 0 0 0-1.215-1.187" fill="#00bef7"/><path d="M24.68 69.145a2.18 2.18 0 1 1-2.18-2.13 2.155 2.155 0 0 1 2.18 2.13" fill="#453e43"/><path d="M17 23.075h-6.339a.955.955 0 0 1-.961-.945v-6.193a.955.955 0 0 1 .965-.944H17a.955.955 0 0 1 .965.944v6.193a.955.955 0 0 1-.965.944" fill="#fce25c"/><path d="M28.779 36.382H22.44a.955.955 0 0 1-.965-.944v-6.194a.955.955 0 0 1 .965-.944h6.339a.956.956 0 0 1 .966.944v6.193a.955.955 0 0 1-.966.944" fill="#f1faff"/><path d="M17 36.391h-6.339a.955.955 0 0 1-.965-.944v-6.193a.955.955 0 0 1 .965-.944H17a.955.955 0 0 1 .965.944v6.193a.955.955 0 0 1-.965.944" fill="#fb636f"/><path d="M29.745 19.717a4.136 4.136 0 1 1-4.135-4.041 4.088 4.088 0 0 1 4.135 4.041" fill="#fa989e"/><path d="M17.965 45.509a4.136 4.136 0 1 1-4.134-4.041 4.088 4.088 0 0 1 4.134 4.041" fill="#e0dde2"/><g fill="#f1faff"><path d="M24.639 57.241h-4.278a1.114 1.114 0 1 1 0-2.227h4.279a1.114 1.114 0 1 1 0 2.227m8.546 0h-4.279a1.114 1.114 0 1 1 0-2.227h4.279a1.114 1.114 0 1 1 0 2.227m-17.217 0H11.69a1.114 1.114 0 1 1 0-2.227h4.279a1.114 1.114 0 1 1 0 2.227"/></g></g></svg>